<?xml version="1.0" encoding="UTF-8" standalone="no"?><!DOCTYPE svg PUBLIC "-//W3C//DTD SVG 1.1//EN" "http://www.w3.org/Graphics/SVG/1.1/DTD/svg11.dtd"><svg width="100%" height="100%" viewBox="0 0 24 24" version="1.1" xmlns="http://www.w3.org/2000/svg" xmlns:xlink="http://www.w3.org/1999/xlink" xml:space="preserve" xmlns:serif="http://www.serif.com/" style="fill-rule:evenodd;clip-rule:evenodd;stroke-linejoin:round;stroke-miterlimit:2;"><path d="M12,2.85C13.74,2.85 15.15,4.26 15.15,6C15.15,7.74 13.74,9.15 12,9.15C10.26,9.15 8.85,7.74 8.85,6C8.85,4.26 10.26,2.85 12,2.85M12,16.35C16.455,16.35 21.15,18.54 21.15,19.5L21.15,21.15L2.85,21.15L2.85,19.5C2.85,18.54 7.545,16.35 12,16.35M12,0C8.685,0 6,2.685 6,6C6,9.315 8.685,12 12,12C15.315,12 18,9.315 18,6C18,2.685 15.315,0 12,0ZM12,13.5C7.995,13.5 0,15.51 0,19.5L0,24L24,24L24,19.5C24,15.51 16.005,13.5 12,13.5Z" style="fill-rule:nonzero;"/></svg>