<?xml version="1.0" encoding="UTF-8" standalone="no"?>
<!DOCTYPE svg PUBLIC "-//W3C//DTD SVG 1.1//EN" "http://www.w3.org/Graphics/SVG/1.1/DTD/svg11.dtd">
<svg width="100%" height="100%" viewBox="0 0 24 24" version="1.1" xmlns="http://www.w3.org/2000/svg" xmlns:xlink="http://www.w3.org/1999/xlink" xml:space="preserve" xmlns:serif="http://www.serif.com/" style="fill-rule:evenodd;clip-rule:evenodd;stroke-linejoin:round;stroke-miterlimit:2;">
    <g transform="matrix(1.2,0,0,1.2,-2.4,-2.4)">
        <path d="M21.41,11.58L12.41,2.58C12.05,2.22 11.55,2 11,2L4,2C2.9,2 2,2.9 2,4L2,11C2,11.55 2.22,12.05 2.59,12.42L11.59,21.42C11.95,21.78 12.45,22 13,22C13.55,22 14.05,21.78 14.41,21.41L21.41,14.41C21.78,14.05 22,13.55 22,13C22,12.45 21.77,11.94 21.41,11.58ZM13,20.01L4,11L4,4L11,4L11,3.99L20,12.99L13,20.01Z" style="fill-rule:nonzero;"/>
    </g>
    <g transform="matrix(1.2,0,0,1.2,-2.4,-2.4)">
        <circle cx="6.5" cy="6.5" r="1.5"/>
    </g>
</svg>
